<svg width="87" height="39" viewBox="0 0 87 39" fill="none" xmlns="http://www.w3.org/2000/svg">
<path d="M2 36.5C2.16667 35 5.1 34.1 9.5 34.5C15 35 19 37.5 23 36C27 34.5 31.5 31.5 35.5 33C39.5 34.5 46 37 51.5 34.5C57 32 62.5 32.5 66.5 35C70.5 37.5 79.8167 32.8944 82.5 32" stroke="#622554" stroke-width="4" stroke-linecap="round"/>
<path d="M4 19.5C4.16667 18 7.1 17.1 11.5 17.5C17 18 21 20.5 25 19C29 17.5 33.5 14.5 37.5 16C41.5 17.5 48 20 53.5 17.5C59 15 64.5 15.5 68.5 18C72.5 20.5 81.8167 15.8944 84.5 15" stroke="#226778" stroke-width="4" stroke-linecap="round"/>
<path d="M8.704 17.712L1.864 13.608V11.952L8.704 7.848V9.288L2.98 12.726V12.834L8.704 16.272V17.712ZM11.566 18V4.86H18.046V6.12H13.042V10.602H17.866V11.862H13.042V18H11.566ZM21.268 9.45C21.856 9.246 22.486 9.072 23.158 8.928C23.842 8.784 24.514 8.67 25.174 8.586C25.846 8.502 26.464 8.46 27.028 8.46V9.72C26.296 9.72 25.498 9.798 24.634 9.954C23.782 10.098 23.02 10.29 22.348 10.53L22.708 9.846V18H21.268V9.45ZM32.5 18.18C31.264 18.18 30.352 17.82 29.764 17.1C29.188 16.368 28.9 15.228 28.9 13.68V12.96C28.9 11.412 29.188 10.278 29.764 9.558C30.352 8.826 31.264 8.46 32.5 8.46C33.748 8.46 34.66 8.826 35.236 9.558C35.812 10.278 36.1 11.412 36.1 12.96V13.68C36.1 15.228 35.812 16.368 35.236 17.1C34.66 17.82 33.748 18.18 32.5 18.18ZM32.5 16.92C33.28 16.92 33.832 16.662 34.156 16.146C34.492 15.63 34.66 14.778 34.66 13.59V13.05C34.66 11.862 34.492 11.01 34.156 10.494C33.832 9.978 33.28 9.72 32.5 9.72C31.732 9.72 31.18 9.978 30.844 10.494C30.508 11.01 30.34 11.862 30.34 13.05V13.59C30.34 14.778 30.508 15.63 30.844 16.146C31.18 16.662 31.732 16.92 32.5 16.92ZM38.134 9.036C38.59 8.832 39.076 8.688 39.592 8.604C40.108 8.508 40.69 8.46 41.338 8.46C42.25 8.46 42.958 8.562 43.462 8.766C43.978 8.97 44.338 9.324 44.542 9.828C44.758 10.32 44.866 11.004 44.866 11.88V18H43.462V11.952C43.462 11.364 43.402 10.908 43.282 10.584C43.162 10.26 42.946 10.038 42.634 9.918C42.334 9.786 41.908 9.72 41.356 9.72C41.08 9.72 40.822 9.738 40.582 9.774C40.342 9.81 40.102 9.87 39.862 9.954C39.622 10.026 39.358 10.14 39.07 10.296L39.538 9.396V18H38.134V9.036ZM51.796 18.18C50.74 18.18 49.978 17.964 49.51 17.532C49.054 17.1 48.826 16.374 48.826 15.354V9.9H46.486V8.64H48.826V5.58H50.266V8.64H53.866V9.9H50.266V15.048C50.266 15.756 50.392 16.248 50.644 16.524C50.908 16.788 51.388 16.92 52.084 16.92C52.42 16.92 52.732 16.896 53.02 16.848C53.32 16.788 53.602 16.71 53.866 16.614V17.874C53.53 17.982 53.188 18.06 52.84 18.108C52.504 18.156 52.156 18.18 51.796 18.18ZM60.148 18.18C58.744 18.18 57.7 17.814 57.016 17.082C56.332 16.338 55.99 15.204 55.99 13.68V12.96C55.99 11.412 56.272 10.278 56.836 9.558C57.412 8.826 58.3 8.46 59.5 8.46C60.712 8.46 61.6 8.826 62.164 9.558C62.728 10.278 63.01 11.412 63.01 12.96V13.932H56.692V12.762H61.93L61.606 13.176V13.014C61.606 11.838 61.438 10.992 61.102 10.476C60.778 9.948 60.244 9.684 59.5 9.684C58.756 9.684 58.216 9.948 57.88 10.476C57.556 10.992 57.394 11.838 57.394 13.014V13.626C57.394 14.454 57.484 15.114 57.664 15.606C57.844 16.086 58.144 16.434 58.564 16.65C58.984 16.854 59.548 16.956 60.256 16.956C60.604 16.956 60.958 16.932 61.318 16.884C61.69 16.836 62.086 16.758 62.506 16.65V17.892C62.146 17.976 61.756 18.042 61.336 18.09C60.928 18.15 60.532 18.18 60.148 18.18ZM65.134 9.036C65.59 8.832 66.076 8.688 66.592 8.604C67.108 8.508 67.69 8.46 68.338 8.46C69.25 8.46 69.958 8.562 70.462 8.766C70.978 8.97 71.338 9.324 71.542 9.828C71.758 10.32 71.866 11.004 71.866 11.88V18H70.462V11.952C70.462 11.364 70.402 10.908 70.282 10.584C70.162 10.26 69.946 10.038 69.634 9.918C69.334 9.786 68.908 9.72 68.356 9.72C68.08 9.72 67.822 9.738 67.582 9.774C67.342 9.81 67.102 9.87 66.862 9.954C66.622 10.026 66.358 10.14 66.07 10.296L66.538 9.396V18H65.134V9.036ZM77.752 18.18C76.816 18.18 76.06 18.018 75.484 17.694C74.92 17.358 74.506 16.818 74.242 16.074C73.99 15.33 73.864 14.352 73.864 13.14C73.864 11.988 73.972 11.07 74.188 10.386C74.404 9.702 74.758 9.21 75.25 8.91C75.742 8.61 76.396 8.46 77.212 8.46C77.728 8.46 78.22 8.514 78.688 8.622C79.168 8.73 79.606 8.898 80.002 9.126L79.552 10.314C79.18 10.11 78.808 9.96 78.436 9.864C78.076 9.768 77.704 9.72 77.32 9.72C76.804 9.72 76.396 9.828 76.096 10.044C75.796 10.248 75.58 10.602 75.448 11.106C75.328 11.598 75.268 12.282 75.268 13.158C75.268 14.094 75.34 14.838 75.484 15.39C75.628 15.942 75.868 16.338 76.204 16.578C76.552 16.806 77.02 16.92 77.608 16.92C78.388 16.92 79.06 16.746 79.624 16.398L79.3 17.172V4.86H80.704V17.604C80.332 17.772 79.894 17.91 79.39 18.018C78.886 18.126 78.34 18.18 77.752 18.18Z" fill="white"/>
<path d="M2.494 36.7C4.138 36.7 5.35 36.424 6.13 35.872C6.91 35.332 7.3 34.48 7.3 33.316V25.36L7.66 26.17C7.312 26.002 6.97 25.888 6.634 25.828C6.298 25.756 5.944 25.72 5.572 25.72C4.984 25.72 4.522 25.816 4.186 26.008C3.85 26.2 3.61 26.53 3.466 26.998C3.334 27.454 3.268 28.09 3.268 28.906C3.268 29.794 3.34 30.496 3.484 31.012C3.628 31.516 3.874 31.876 4.222 32.092C4.57 32.296 5.05 32.398 5.662 32.398C6.022 32.398 6.358 32.368 6.67 32.308C6.994 32.236 7.336 32.14 7.696 32.02L8.074 33.28C7.75 33.388 7.402 33.478 7.03 33.55C6.658 33.61 6.232 33.64 5.752 33.64C4.804 33.64 4.042 33.484 3.466 33.172C2.902 32.86 2.494 32.356 2.242 31.66C1.99 30.964 1.864 30.04 1.864 28.888C1.864 27.796 1.984 26.926 2.224 26.278C2.476 25.63 2.884 25.168 3.448 24.892C4.024 24.604 4.786 24.46 5.734 24.46C6.91 24.46 7.9 24.652 8.704 25.036V33.226C8.704 34.822 8.188 36.01 7.156 36.79C6.136 37.57 4.582 37.96 2.494 37.96V36.7ZM14.5 34.18C13.264 34.18 12.352 33.82 11.764 33.1C11.188 32.368 10.9 31.228 10.9 29.68V28.96C10.9 27.412 11.188 26.278 11.764 25.558C12.352 24.826 13.264 24.46 14.5 24.46C15.748 24.46 16.66 24.826 17.236 25.558C17.812 26.278 18.1 27.412 18.1 28.96V29.68C18.1 31.228 17.812 32.368 17.236 33.1C16.66 33.82 15.748 34.18 14.5 34.18ZM14.5 32.92C15.28 32.92 15.832 32.662 16.156 32.146C16.492 31.63 16.66 30.778 16.66 29.59V29.05C16.66 27.862 16.492 27.01 16.156 26.494C15.832 25.978 15.28 25.72 14.5 25.72C13.732 25.72 13.18 25.978 12.844 26.494C12.508 27.01 12.34 27.862 12.34 29.05V29.59C12.34 30.778 12.508 31.63 12.844 32.146C13.18 32.662 13.732 32.92 14.5 32.92ZM23.5 34.18C22.264 34.18 21.352 33.82 20.764 33.1C20.188 32.368 19.9 31.228 19.9 29.68V28.96C19.9 27.412 20.188 26.278 20.764 25.558C21.352 24.826 22.264 24.46 23.5 24.46C24.748 24.46 25.66 24.826 26.236 25.558C26.812 26.278 27.1 27.412 27.1 28.96V29.68C27.1 31.228 26.812 32.368 26.236 33.1C25.66 33.82 24.748 34.18 23.5 34.18ZM23.5 32.92C24.28 32.92 24.832 32.662 25.156 32.146C25.492 31.63 25.66 30.778 25.66 29.59V29.05C25.66 27.862 25.492 27.01 25.156 26.494C24.832 25.978 24.28 25.72 23.5 25.72C22.732 25.72 22.18 25.978 21.844 26.494C21.508 27.01 21.34 27.862 21.34 29.05V29.59C21.34 30.778 21.508 31.63 21.844 32.146C22.18 32.662 22.732 32.92 23.5 32.92ZM32.752 34.18C31.816 34.18 31.06 34.018 30.484 33.694C29.92 33.358 29.506 32.818 29.242 32.074C28.99 31.33 28.864 30.352 28.864 29.14C28.864 27.988 28.972 27.07 29.188 26.386C29.404 25.702 29.758 25.21 30.25 24.91C30.742 24.61 31.396 24.46 32.212 24.46C32.728 24.46 33.22 24.514 33.688 24.622C34.168 24.73 34.606 24.898 35.002 25.126L34.552 26.314C34.18 26.11 33.808 25.96 33.436 25.864C33.076 25.768 32.704 25.72 32.32 25.72C31.804 25.72 31.396 25.828 31.096 26.044C30.796 26.248 30.58 26.602 30.448 27.106C30.328 27.598 30.268 28.282 30.268 29.158C30.268 30.094 30.34 30.838 30.484 31.39C30.628 31.942 30.868 32.338 31.204 32.578C31.552 32.806 32.02 32.92 32.608 32.92C33.388 32.92 34.06 32.746 34.624 32.398L34.3 33.172V20.86H35.704V33.604C35.332 33.772 34.894 33.91 34.39 34.018C33.886 34.126 33.34 34.18 32.752 34.18ZM41.68 34V25.9H38.44V24.64H43.12V34H41.68ZM42.112 22.948C41.728 22.948 41.416 22.84 41.176 22.624C40.948 22.396 40.834 22.096 40.834 21.724C40.834 21.34 40.948 21.04 41.176 20.824C41.416 20.608 41.728 20.5 42.112 20.5C42.496 20.5 42.802 20.608 43.03 20.824C43.27 21.04 43.39 21.34 43.39 21.724C43.39 22.096 43.27 22.396 43.03 22.624C42.802 22.84 42.496 22.948 42.112 22.948ZM51.148 34.18C49.744 34.18 48.7 33.814 48.016 33.082C47.332 32.338 46.99 31.204 46.99 29.68V28.96C46.99 27.412 47.272 26.278 47.836 25.558C48.412 24.826 49.3 24.46 50.5 24.46C51.712 24.46 52.6 24.826 53.164 25.558C53.728 26.278 54.01 27.412 54.01 28.96V29.932H47.692V28.762H52.93L52.606 29.176V29.014C52.606 27.838 52.438 26.992 52.102 26.476C51.778 25.948 51.244 25.684 50.5 25.684C49.756 25.684 49.216 25.948 48.88 26.476C48.556 26.992 48.394 27.838 48.394 29.014V29.626C48.394 30.454 48.484 31.114 48.664 31.606C48.844 32.086 49.144 32.434 49.564 32.65C49.984 32.854 50.548 32.956 51.256 32.956C51.604 32.956 51.958 32.932 52.318 32.884C52.69 32.836 53.086 32.758 53.506 32.65V33.892C53.146 33.976 52.756 34.042 52.336 34.09C51.928 34.15 51.532 34.18 51.148 34.18ZM59.176 34.18C58.66 34.18 58.174 34.138 57.718 34.054C57.274 33.982 56.83 33.862 56.386 33.694V32.416C56.854 32.584 57.31 32.71 57.754 32.794C58.21 32.878 58.666 32.92 59.122 32.92C59.89 32.92 60.46 32.806 60.832 32.578C61.204 32.35 61.39 32.002 61.39 31.534C61.39 31.294 61.312 31.078 61.156 30.886C61.012 30.694 60.778 30.508 60.454 30.328C60.142 30.148 59.722 29.968 59.194 29.788C58.102 29.44 57.322 29.044 56.854 28.6C56.398 28.144 56.17 27.568 56.17 26.872C56.17 26.044 56.458 25.438 57.034 25.054C57.622 24.658 58.534 24.46 59.77 24.46C60.19 24.46 60.61 24.49 61.03 24.55C61.45 24.598 61.96 24.7 62.56 24.856V27.61H61.156V25.09L61.804 25.954C61.36 25.858 60.994 25.798 60.706 25.774C60.418 25.738 60.136 25.72 59.86 25.72C59.104 25.72 58.54 25.822 58.168 26.026C57.796 26.218 57.61 26.518 57.61 26.926C57.61 27.154 57.682 27.37 57.826 27.574C57.97 27.766 58.204 27.952 58.528 28.132C58.852 28.312 59.29 28.498 59.842 28.69C60.946 29.062 61.72 29.47 62.164 29.914C62.608 30.346 62.83 30.91 62.83 31.606C62.83 32.47 62.524 33.118 61.912 33.55C61.312 33.97 60.4 34.18 59.176 34.18ZM64.594 34.72L70.912 20.14H72.406L66.088 34.72H64.594ZM74.296 33.712V32.272L80.02 28.834V28.726L74.296 25.288V23.848L81.136 27.952V29.608L74.296 33.712Z" fill="white"/>
</svg>
